<?xml version="1.0" standalone="no"?>
<!DOCTYPE svg PUBLIC "-//W3C//DTD SVG 20010904//EN"
 "http://www.w3.org/TR/2001/REC-SVG-20010904/DTD/svg10.dtd">
<svg version="1.0" xmlns="http://www.w3.org/2000/svg"
 width="500.000000pt" height="500.000000pt" viewBox="0 0 500.000000 500.000000"
 preserveAspectRatio="xMidYMid meet">

<g transform="translate(0.000000,500.000000) scale(0.100000,-0.100000)"
fill="#000000" stroke="none">
<path d="M0 2500 l0 -2500 2500 0 2500 0 0 2500 0 2500 -2500 0 -2500 0 0
-2500z m2693 1485 c261 -45 492 -172 673 -368 323 -353 396 -877 179 -1307
-265 -526 -858 -772 -1420 -589 -275 90 -522 300 -660 562 -91 172 -135 353
-135 552 0 237 66 454 198 655 48 73 190 220 272 281 77 58 229 138 320 169
170 57 399 75 573 45z m-1085 -2547 c3 -15 -4 -18 -42 -18 l-46 0 0 -150 0
-150 -25 0 -25 0 0 150 0 150 -45 0 c-31 0 -45 4 -45 13 0 25 13 28 119 25 91
-3 106 -5 109 -20z m232 2 c0 -18 -7 -20 -65 -20 l-65 0 0 -55 0 -55 60 0 c53
0 60 -2 60 -20 0 -18 -7 -20 -60 -20 l-60 0 0 -55 0 -55 65 0 c58 0 65 -2 65
-20 0 -19 -7 -20 -90 -20 l-90 0 0 163 c0 90 3 167 7 170 3 4 44 7 90 7 76 0
83 -2 83 -20z m1056 -15 c46 -35 64 -74 64 -135 0 -105 -53 -162 -155 -168
-50 -3 -65 0 -94 20 -60 41 -76 71 -76 146 0 55 4 73 24 101 52 73 166 90 237
36z m199 -114 l52 -143 46 127 c26 69 47 130 47 135 0 14 30 32 44 27 12 -5 2
-39 -48 -169 -56 -149 -64 -163 -88 -166 -17 -2 -28 3 -32 15 -52 132 -116
306 -116 314 0 6 10 9 21 7 18 -2 31 -27 74 -147z m-974 -26 c32 -88 59 -161
59 -162 0 -2 -11 -3 -24 -3 -19 0 -27 8 -36 35 l-12 36 -76 -3 -76 -3 -10 -32
c-7 -25 -14 -33 -32 -33 -13 0 -24 2 -24 4 0 4 86 241 109 299 9 23 16 28 37
25 25 -3 31 -15 85 -163z m218 33 c31 -70 59 -128 62 -128 3 0 32 59 64 130
51 113 61 130 82 130 l23 0 0 -165 c0 -157 -1 -165 -20 -165 -18 0 -20 8 -22
121 l-3 122 -54 -122 c-37 -84 -58 -121 -70 -121 -11 0 -32 36 -68 118 l-52
117 -1 -117 0 -118 -25 0 -25 0 0 166 0 165 27 -3 c24 -3 33 -16 82 -130z
m1166 115 c4 -10 26 -72 50 -138 24 -66 48 -132 54 -147 10 -26 9 -28 -14 -28
-18 0 -27 8 -36 35 l-13 35 -73 0 -73 0 -14 -35 c-10 -24 -22 -35 -35 -35 -12
0 -21 3 -21 6 0 4 26 78 58 165 54 151 58 159 83 159 16 0 30 -7 34 -17z"/>
<path d="M2300 3915 c-143 -26 -304 -93 -430 -179 -25 -17 -82 -66 -128 -110
-176 -169 -275 -346 -323 -581 -29 -140 -23 -346 15 -490 29 -110 92 -250 157
-347 53 -79 205 -231 284 -285 234 -158 525 -223 800 -178 395 64 725 339 860
718 146 407 36 867 -276 1162 -45 42 -107 93 -138 114 -128 87 -302 157 -451
181 -89 14 -279 11 -370 -5z m700 -625 l0 -130 -170 0 -170 0 0 -520 0 -520
-160 0 -160 0 0 520 0 520 -170 0 -170 0 0 130 0 130 500 0 500 0 0 -130z"/>
<path d="M2733 1401 c-56 -35 -75 -101 -47 -169 20 -51 55 -72 117 -72 83 0
135 81 108 169 -23 79 -111 114 -178 72z"/>
<path d="M2006 1319 c-14 -38 -26 -74 -26 -80 0 -5 25 -9 55 -9 30 0 55 3 55
6 0 8 -52 154 -55 154 -2 0 -14 -32 -29 -71z"/>
<path d="M3466 1380 c-3 -8 -16 -45 -30 -82 l-25 -68 59 0 c33 0 60 1 60 3 0
2 -13 39 -29 83 -17 45 -32 73 -35 64z"/>
</g>
</svg>
